<svg xmlns="http://www.w3.org/2000/svg" width="86" height="72.343" viewBox="0 0 86 72.343">
  <g id="grama-sintetica" transform="translate(0 -6.829)">
    <path id="Caminho_112" data-name="Caminho 112" d="M84.32,75.812H71.677a19.166,19.166,0,0,1,.993-5.156C74,66.529,77.3,59.857,85.517,51.511a1.68,1.68,0,0,0-1.457-2.838,34.946,34.946,0,0,0-11.867,4.683,29.032,29.032,0,0,0-11.427,13q.279-.993.6-1.972c2.485-7.546,8.573-19.717,23.463-34.847A1.68,1.68,0,0,0,83.373,26.7,54.844,54.844,0,0,0,51.442,43.867c-.867-10.7-1.808-19.162-2.8-25.175a55.106,55.106,0,0,0-1.8-8.034c-.386-1.146-1.289-3.83-3.417-3.83-1.972,0-2.917,2.194-3.582,4.34a68.674,68.674,0,0,0-1.924,9.353c-1.064,7.025-2.06,16.849-2.966,29.243A49,49,0,0,0,22,38.2,57.031,57.031,0,0,0,2.628,30.545a1.68,1.68,0,0,0-1.457,2.837c9.584,9.739,15.205,18.143,18.5,24.689a30.9,30.9,0,0,0-5.864-4.714A34.942,34.942,0,0,0,1.94,48.674,1.68,1.68,0,0,0,.483,51.511C8.54,59.7,11.859,66.266,13.225,70.333a19.52,19.52,0,0,1,1.093,5.478H6.645a1.68,1.68,0,1,0,0,3.359H84.32a1.68,1.68,0,0,0,0-3.359ZM40.972,22.865c1.011-7.215,1.9-10.406,2.452-11.809.5,1.271,1.279,4.014,2.173,9.892.982,6.458,1.912,15.411,2.766,26.615a51.194,51.194,0,0,0-7.2,13.064A45.52,45.52,0,0,0,38,54.241c.9-13.2,1.9-23.754,2.967-31.376ZM17.679,75.812c-.1-3.5-1.524-11.376-10.662-22.141a32.478,32.478,0,0,1,5.014,2.537,25.269,25.269,0,0,1,12.235,19.6Zm10.251,0A34.207,34.207,0,0,0,26.06,64.721c-3.019-9.387-9.23-19.278-18.488-29.462a56.347,56.347,0,0,1,12.751,5.855A44.336,44.336,0,0,1,34.729,55.262a1.682,1.682,0,0,0,.3.494,42.845,42.845,0,0,1,4.538,10.564,1.675,1.675,0,0,0,.093.324,50.82,50.82,0,0,1,1.491,7.949q.067.612.124,1.217Zm28.115,0H52.922c-.162-5.807,1.422-12.334,4.715-19.417a1.68,1.68,0,0,0-3.046-1.416c-3.5,7.522-5.186,14.525-5.029,20.834H44.648q-.074-.79-.16-1.579a53.665,53.665,0,0,0-1.53-8.213c4.533-16.831,18.515-30.3,35.732-34.9a118.814,118.814,0,0,0-12.979,16.7A70.477,70.477,0,0,0,58.063,63.68a36.679,36.679,0,0,0-2.018,12.132Zm5.689,0a25.266,25.266,0,0,1,12.134-19.54,32.345,32.345,0,0,1,5.111-2.6c-9.133,10.762-10.56,18.631-10.657,22.135H61.734Z" fill="#314785"/>
    <path id="Caminho_113" data-name="Caminho 113" d="M60.221,51.251a1.68,1.68,0,0,0-2.833-1.8,3.044,3.044,0,0,0-.185.328,1.68,1.68,0,0,0,3.018,1.476ZM1.759,75.812H1.68a1.68,1.68,0,1,0,0,3.359h.08a1.68,1.68,0,1,0,0-3.359Z" fill="#314785"/>
  </g>
</svg>
