<svg xmlns="http://www.w3.org/2000/svg" width="86" height="65.933" viewBox="0 0 86 65.933">
  <g id="piso-vinil" transform="translate(0 -10.033)">
    <path id="Caminho_111" data-name="Caminho 111" d="M77.4,10.033c-5.639,0-7.837,3.219-8.425,5.733H4.3a4.305,4.305,0,0,0-4.3,4.3v51.6a4.305,4.305,0,0,0,4.3,4.3H77.4a8.609,8.609,0,0,0,8.6-8.6V17.2C86,14.722,84.2,10.033,77.4,10.033Zm0,2.867c5.5,0,5.725,3.871,5.733,4.3V60.4A9.435,9.435,0,0,0,77.4,58.767a9.485,9.485,0,0,0-5.733,1.661V17.2C71.667,17.025,71.733,12.9,77.4,12.9ZM68.8,48.14l-2.99-2.99,2.99-2.99Zm0-10.033L56.258,50.648l-5.14-5.14L68.8,27.827Zm-5.017,9.07L68.8,52.193v11L58.285,52.675Zm5.017-23.4L40.85,51.723l-5.14-5.14,27.95-27.95H68.8ZM25.8,52.44,20.66,47.3,49.327,18.633h10.28Zm-15.05.717L4.893,47.3,33.56,18.633H45.273ZM2.867,45.273V33.56L17.793,18.633H29.507Zm0,4.053L26.64,73.1H14.927L2.867,61.04Zm9.91,5.857,5.857-5.857L42.407,73.1H30.693Zm15.05-.717,5.857-5.857L58.173,73.1H46.46ZM4.3,18.633h9.44L2.867,29.507v-9.44A1.435,1.435,0,0,1,4.3,18.633ZM2.867,71.667V65.093L10.873,73.1H4.3A1.435,1.435,0,0,1,2.867,71.667Zm80.267-4.3A5.739,5.739,0,0,1,77.4,73.1H62.227L42.877,53.75l6.215-6.215L69,67.445c.007.029.009.057.017.086a5.665,5.665,0,0,0,2.827,3.52,6.017,6.017,0,0,0,2.749.665,4.528,4.528,0,0,0,3.553-1.532,4.826,4.826,0,0,0,.621-4.677,1.433,1.433,0,1,0-2.735.854c.129.413.38,1.433-.08,1.981a2.509,2.509,0,0,1-2.775.172,2.8,2.8,0,0,1-1.395-1.734,3.977,3.977,0,0,1,.993-3.526,6.212,6.212,0,0,1,4.622-1.62c5.49,0,5.725,3.861,5.733,4.311v1.422Z" fill="#314785"/>
  </g>
</svg>
