<svg xmlns="http://www.w3.org/2000/svg" width="86" height="74.533" viewBox="0 0 86 74.533">
  <g id="piso-academia" transform="translate(0 -5.733)">
    <path id="Caminho_114" data-name="Caminho 114" d="M85.833,17.994a14.323,14.323,0,0,0-28.426.639H1.433A1.434,1.434,0,0,0,0,20.067V78.833a1.434,1.434,0,0,0,1.433,1.433H71.667A14.35,14.35,0,0,0,86,65.933v-47.3a1.4,1.4,0,0,0-.167-.639ZM2.867,21.5H57.334V61.633c0,.014.009.027.009.041a1.4,1.4,0,0,0,.027.174,1.308,1.308,0,0,0,.056.235c.016.045.021.092.04.135s.059.09.086.138a1.321,1.321,0,0,0,.138.2,1.42,1.42,0,0,0,.09.112,1.5,1.5,0,0,0,.143.1c.039.029.063.07.1.1l7.167,4.3c.039.023.08.032.119.052s.082.037.126.054a1.43,1.43,0,0,0,.493.1h0a1.456,1.456,0,0,0,.493-.1c.037-.014.073-.026.107-.043a1.4,1.4,0,0,0,.4-.271c.013-.013.02-.029.033-.041a1.43,1.43,0,0,0,.192-.241c.017-.029.017-.063.033-.093a1.389,1.389,0,0,0,.1-.269,1.467,1.467,0,0,0,.057-.281c0-.032.017-.06.017-.095a4.3,4.3,0,0,1,8.6,0,4.541,4.541,0,0,1-3.1,4.3h-70Zm68.8,55.9H2.867V73.1H73.1a1.38,1.38,0,0,0,.355-.046c.06-.016.115-.045.174-.062.013-.006.027-.009.04-.014a7.375,7.375,0,0,0,5.163-7.045,7.147,7.147,0,0,0-13.925-2.286L60.6,61.063a12.519,12.519,0,0,1,11.067-6.6,11.467,11.467,0,1,1,0,22.933ZM83.133,57.369A14.307,14.307,0,0,0,71.667,51.6,15.862,15.862,0,0,0,60.2,56.621V20.067a11.467,11.467,0,1,1,22.933,0Z" fill="#314785"/>
    <path id="Caminho_115" data-name="Caminho 115" d="M11.467,27.233h2.867V30.1H11.467Zm8.6,0h2.867V30.1H20.067Zm8.6,0h2.867V30.1H28.667Zm8.6,0h2.867V30.1H37.267Zm8.6,0h2.867V30.1H45.867Zm-30.1,8.6h2.867V38.7H15.767Zm8.6,0h2.867V38.7H24.367Zm8.6,0h2.867V38.7H32.967Zm8.6,0h2.867V38.7H41.567Zm-30.1,8.6h2.867V47.3H11.467Zm8.6,0h2.867V47.3H20.067Zm8.6,0h2.867V47.3H28.667Zm8.6,0h2.867V47.3H37.267Zm8.6,0h2.867V47.3H45.867Zm-30.1,8.6h2.867V55.9H15.767Zm8.6,0h2.867V55.9H24.367Zm8.6,0h2.867V55.9H32.967Zm8.6,0h2.867V55.9H41.567Zm-30.1,8.6h2.867V64.5H11.467Zm8.6,0h2.867V64.5H20.067Zm8.6,0h2.867V64.5H28.667Zm8.6,0h2.867V64.5H37.267Zm8.6,0h2.867V64.5H45.867Z" fill="#314785"/>
  </g>
</svg>
